<svg version="1" xmlns="http://www.w3.org/2000/svg" width="682.667" height="682.667" viewBox="0 0 512.000000 512.000000"><path d="M301.7 1.2c-2.9 2.2-18 39.1-42.4 103.3-6.9 18.1-12.7 33.2-12.9 33.4-.8.9-14.5-12.5-15-14.8-1.2-5.9-3.7-11.2-5.7-12.3-1.2-.6-5.7-4.2-9.9-7.9-9.2-8.2-12.1-9.1-27.8-9.3-12.8-.1-21.5 1.9-32 7.5-3 1.5-10.9 5.3-17.5 8.2-19.9 8.9-39.7 21.9-41.6 27.4-.6 1.8-.8 3.7-.4 4.3 1.3 2.1 8.1.9 22.5-4 15.9-5.4 20.9-6 28.1-3.5 7.2 2.6 11.5 6.2 19.5 16.6 9.2 12.1 12.7 15.4 18.2 17.5 2.3.9 4.2 2 4.2 2.4 0 1.8-8.1 11-12 13.6-2.3 1.6-8 5.7-12.8 9.1-4.7 3.5-10.5 7-12.8 8-2.8 1.2-4.8 2.9-6 5.3-1.1 1.9-6.5 8-12.2 13.6-9.2 9-10.9 10.2-15.5 11.3-2.9.6-11.3 3.9-18.7 7.3-15.9 7.2-20.7 8.8-26.9 8.8-3.9 0-5.9.9-13.7 6-10.8 7-17.9 14.5-19.5 20.3-2.3 8.7 1.3 22.5 7.9 29.8 3.9 4.3 4.9 4.9 8.4 4.9 2.9 0 5.2.9 8.4 3.2 2.4 1.7 5.4 3.2 6.6 3.3 1.7.1 2.7 1.6 4.8 6.6 3.8 9.4 7.8 14.7 23.5 30.9 16.8 17.5 20.3 23.1 23.4 36.9 2 8.5 2.8 10.5 5.3 12.6 2.7 2.3 3.8 2.5 12.4 2.5 9 0 22.3-2 27.1-4 1.2-.5 3.1-2.7 4.3-5 1.1-2.2 2.9-4.6 4-5.2 2.9-1.9 2.5-5.9-1.5-14.8-5.6-12.5-4.7-15.9 6.1-21 5.2-2.5 8.8-5.6 18.5-15.4 11.8-12.1 19.5-17.6 24.8-17.6 1 0 5.5 1.4 9.8 3 4.4 1.7 11.3 3.7 15.3 4.4 8.9 1.7 10.8 3.5 13.9 12.9l2.2 6.5-5.1 12.6c-5.4 13.7-13.8 31-20.3 42-3.9 6.5-4.1 7.2-4.3 16-.1 5-.9 12.4-1.8 16.4-3.3 14.9-1.6 33.5 4.6 49.5 3.7 9.6 6.1 12.5 13.7 16.5C264.2 508 276 511 293 511.6l13.5.6 16-5.5c8.8-3 29.7-10.5 46.5-16.7 28.5-10.4 31.2-11.6 41.5-18.5 20.1-13.4 34-27 44.2-43.4.2-.2 3.7-1.6 7.9-3 4.8-1.6 8.2-3.4 9.1-4.8 1.4-2 1.1-2.3-4.9-5.6-3.5-2-12.6-5.6-20.3-8.2-18.4-6-24.1-9-28.7-15-4.7-6.2-7.3-14.8-9.3-30.5-.8-6.9-2.3-15.2-3.4-18.5-2-6.5-3.4-7.7-10.8-9.5-5.5-1.4-7.1-4.3-8.2-15.5-.5-5-1.5-9.5-2.5-11.1-1.6-2.4-1.6-2.8-.2-5.9 2.6-5.3 3.7-13.4 3-21.2-.7-7.1-.6-7.2 2.6-10.5l3.3-3.2 3.3 3.9c4.4 5.1 11 18.6 17.2 35 8.1 21.2 8.8 22.5 11.6 22.5 4 0 6.5-3 7.2-8.5.4-2.8 1.4-6.4 2.4-8.2 1.8-3.1 1.8-3.3-.6-10.1-2.9-8.4-5.1-18.8-6.3-29.7-.7-6.9-.6-8.5 1-11.5 2.6-4.9 2.4-9.1-1.2-20-2.3-7-3-10.8-2.6-14.3.2-2.6 0-4.7-.4-4.7-1.7 0-4.7-4.3-5.3-7.6-1-5.3-7.7-9.5-26.7-16.8-5.3-2.1-10.4-4.3-11.4-4.9-1.5-1.1-.4-3.5 10.4-22.9 19.1-34.5 33-55.9 46.9-72.4 5.9-7.1 6-7.2 7.3-16.2 1.2-8.5 1.1-9.3-.6-11.2-1-1.1-2.4-2-3.2-2-2.9 0-36.7 22.4-60.5 40.2-8.6 6.5-22.7 17.6-31.2 24.8-8.6 7.1-16.1 13-16.7 13-2 0-12.1-9.5-14-13.2-1.1-2.1-3.1-8.4-4.6-14-2.6-10.2-2.6-10.8-2.8-48.8-.2-34.8-.4-39.7-2.5-51.5-2.8-16.5-3.6-18-7.3-15.3zm-.9 54.2c-.2 16.7-.5 30.7-.8 30.9-.6.6-16.7-1.7-19.1-2.7-1.4-.6-1.4-1.4-.2-6.9.7-3.4 1.3-7.9 1.3-10 0-2.6 1-5.3 3.1-8.3 1.6-2.4 5-10.4 7.3-17.7 5.5-16.7 6.7-19.3 7.8-17.3.5.9.8 15.3.6 32zm116.7 51.2c-1.3 3.6-3.5 8.3-4.9 10.6l-2.4 4.1-1.1-3.9c-1.7-6.2-1.4-6.9 4.6-12.3 3.1-2.8 5.8-5.1 6-5.1.2 0-.8 2.9-2.2 6.6zm-229 10c3.9.3 8.2 1 9.8 1.6 1.5.6 5.7 4.6 9.3 9 3.6 4.4 9.2 10 12.4 12.5 4.8 3.7 5.8 4.9 5 6.3-1.3 2.4-6.5 6.6-13 10.4-3 1.8-6.4 3.8-7.6 4.5-5.7 3.7-14.5-2.5-19.5-13.5-1.9-4.1-5.4-9-10.3-14.2-8.1-8.7-10.5-12.2-8.4-12.2.7 0 3.1-1.4 5.3-3.1 3.1-2.3 4.7-2.9 7-2.5 1.7.3 6.2.8 10 1.2zm112.7 40.1c6.1 7.9 6 7.7 3.4 10.8-2.2 2.6-2.3 2.9-.9 7.4 3.6 12.2 10.4 22.7 16.2 25.1 2.7 1.1 3 1.7 3.6 7.8.3 3.7 1 9.8 1.5 13.7 2 15.1 2 16.6-.4 17.6-3 1.5-7.6 7.8-7.6 10.6 0 3.7 5.9 13.2 9.3 14.9 3 1.6 8.4 1.5 21.3-.2l4.1-.6 1.6 10.4c1 5.6 2 14.6 2.3 19.9l.7 9.6-2.5.5c-1.3.2-7.3-.2-13.2-1-9.7-1.3-12.4-1.2-26.4.3-41.1 4.4-42.3 4.5-52.7 3.4-7.8-.9-12.1-2-19.2-5.1-9.7-4.1-20.1-6.8-26.7-6.8-3.1 0-5.1.9-9.3 4.2-6.2 4.7-7.4 6.6-6.6 9.7.6 2.4 0 3-19.6 21.1l-11.4 10.4-12.9 3.7c-7.1 2.1-14.6 3.9-16.6 4-6.2.4-17.9-1.3-20.5-3-11.2-7.5-13.5-10.4-22.4-27.8-3.6-7.1-7.5-14.2-8.8-15.8-1.5-2-7.7-5.7-18.9-11.4-18.2-9.3-18.3-9.4-14.9-16.6 2-4.3 5-5 16.6-4.1 22.2 1.8 26.2 1.8 29.7.4 6.8-2.9 37.8-30 68.5-59.9 9.3-9.1 19.7-19 22.9-21.9 9.4-8.4 25.2-14.9 54.6-22.5 17.6-4.5 35.1-9.9 40.5-12.4 7.2-3.5 9.6-2.9 14.7 3.6zm45.8 48.5c6 1.1 20.5 4.8 39.9 10.2 14.3 4 18.5 7 19.4 13.6.2 2 2.2 7.5 4.3 12.1 3.8 8.4 5.6 18 3.6 19.3-.6.3-2.4-1.8-4-4.7-6.4-11.4-16.5-17.5-29-17.6-2.9 0-5.6-.3-6-.5-.4-.2-6.6.5-13.7 1.5-14.5 2.2-21.4 2.6-26.3 1.5l-3.4-.8.7-7.6c.4-4.3 1.1-10.4 1.6-13.7.5-3.3.9-7.8.9-10.1 0-4.9.7-5.7 3.9-4.9 1.4.4 5 1.1 8.1 1.7zm9.3 119.8c3.6 10.2 7.5 21.2 8.7 24.5 1.2 3.3 2.7 7.8 3.4 10 .7 2.2 5.7 16.4 11 31.5 5.4 15.1 12.2 34.5 15.2 43 3.1 8.5 5.7 16.1 5.9 16.7.3.7-.7 1.5-2.3 1.9-1.5.3-7.6 2.6-13.7 5.1-8.9 3.8-12.5 4.7-18.7 5.1-6.9.4-7.8.2-9.5-1.8-1-1.2-3.7-3.3-5.9-4.6-3.3-2-5-4-7.9-9.9-2.8-5.7-4.8-8.3-8.5-11-2.7-2-7.3-6.3-10.2-9.7l-5.3-6.2v-29.1l4.2-6.4c3.8-5.8 4.1-6.8 3.6-11-.4-3.5.1-6.1 2.1-11 2.9-7.3 3.2-9.6 1.3-13.9-1.3-3.1-1.3-3-8.2 13.1-11.9 28.1-13 31.9-13.1 48.1-.1 13.3-.2 14-2.3 15.5-1.6 1-7.2 1.8-18.7 2.5l-16.4.9-7.5-5.2c-4.7-3.3-9.1-5.5-11.7-5.9-4-.7-4.3-1-4.6-4.2-.2-2.4.6-5.3 2.6-9 1.6-3 3.7-8.4 4.6-12 2.4-9.3 2.7-9.5 12.1-7.5 9.1 1.8 24.3 3.4 33.4 3.5 5.3 0 6.9-.4 8.8-2.2 5.3-4.9 3.6-5.8-25.9-13.3l-13.3-3.4.2-4.2c.4-7.5 8.4-29 11.7-31.1 4.2-2.9 30.4-10.3 42.7-12.1.8-.2 1.9-.5 2.4-.8.6-.4 2.8-1.2 5-1.9s7.1-2.8 10.8-4.8c6.4-3.3 6.8-3.7 6.5-6.4-.9-5.7 1.2-.9 7.5 17.2zm-199.5 42.5c2 4.4 2.5 10 1 11.1-2.2 1.7-13.1 4.4-17.9 4.4-4.8 0-7.9-1.3-6-2.4 1.7-1.1 1.3-4.1-.9-6.9-3.4-4.2-2.7-5.7 2.8-5.8 2.6 0 7-.7 9.7-1.4 8-2 10-1.8 11.3 1zm159.4 79.7c2 4.6 3.9 9.4 4.3 10.8.4 1.4 2.4 4.3 4.5 6.5 4.6 4.9 7 9.4 7 13.5 0 2.2-.5 3-1.8 3-.9 0-4.9 1.9-8.7 4.1l-7 4.2-16-1.2c-11.8-.8-19.2-1.9-27.9-4.2-13.4-3.4-16.3-4.7-22.1-9.6-5.6-4.8-6.4-6.8-6.5-15.4 0-8.5 1-10.4 8.1-13.9 3.7-2 4.2-2 9.1-.5 7.5 2.2 11.8 1.9 26.8-1.9 8.3-2.2 16-3.5 20.1-3.5l6.6-.1 3.5 8.2z"/><path d="M201.9 194.4c-5.9 2.1-10.4 5.3-15.8 11.1-4.8 5.3-11.1 15.1-11.1 17.3 0 .7 1.4 1.9 3.1 2.8 2.6 1.3 4.9 1.5 13.5.9l10.4-.7v-2.7c0-1.8 1.7-4.7 5.1-8.6 5.1-5.9 7-9.4 8.3-14.7 1.3-5.8-5.2-8.4-13.5-5.4zM248.7 203.4c-2.7.7-6.1 2.3-7.5 3.5-1.5 1.1-4.4 3.1-6.4 4.3-2.1 1.3-4 3.4-4.3 4.8-.4 1.3-2.2 4.9-4.1 8-2.3 3.7-3.4 6.8-3.4 9.3 0 3.4.4 4 3.5 5.3 3.3 1.4 3.8 1.3 6.1-.5 1.3-1 4.7-2.4 7.4-3.1 3.1-.7 5.7-2.1 6.9-3.6 1-1.3 2.4-2.4 2.9-2.4 2.7 0 7.3-5.6 10.1-12.4 3.8-9.2 3.9-10.7.2-12.9-3.4-2-4.9-2-11.4-.3zM138.6 268.5c-1 .8-4.9 2.4-8.5 3.6-8 2.6-12.1 4.9-12.1 6.7 0 .7-.9 3.1-2.1 5.3-2.3 4.7-2.1 6.1 1.6 8.5 2.4 1.5 2.8 1.5 6.9 0 5.4-2.1 7.3-1.4 8.5 3.2 1.2 4.1 6.7 10.2 9.3 10.2 1 0 3.2-1.3 5-2.9l3.3-2.9v-14.7c0-14.3-.1-14.8-2.4-16.6-2.8-2.2-6.9-2.4-9.5-.4zM326.1 326.6c0 1.1.3 1.4.6.6.3-.7.2-1.6-.1-1.9-.3-.4-.6.2-.5 1.3zM326.1 332.6c0 1.1.3 1.4.6.6.3-.7.2-1.6-.1-1.9-.3-.4-.6.2-.5 1.3zM327.2 339c0 1.4.2 1.9.5 1.2.2-.6.2-1.8 0-2.5-.3-.6-.5-.1-.5 1.3z"/></svg>